<mxfile host="app.diagrams.net" modified="2021-10-24T14:51:19.047Z" agent="5.0 (Windows NT 10.0; Win64; x64) AppleWebKit/537.36 (KHTML, like Gecko) Chrome/94.0.4606.81 Safari/537.36" etag="NAkxxURR4Ya9UdRujDWI" version="15.5.9" type="github">
  <diagram id="6Ix-BiRqpFox4-1GNIJx" name="Page-1">
    <mxGraphModel dx="1038" dy="571" grid="1" gridSize="10" guides="1" tooltips="1" connect="1" arrows="1" fold="1" page="1" pageScale="1" pageWidth="827" pageHeight="1169" math="0" shadow="0">
      <root>
        <mxCell id="0" />
        <mxCell id="1" parent="0" />
        <mxCell id="MDes7jxScGut0bWwCWs6-19" style="edgeStyle=orthogonalEdgeStyle;rounded=0;orthogonalLoop=1;jettySize=auto;html=1;exitX=0.5;exitY=1;exitDx=0;exitDy=0;entryX=0.5;entryY=0;entryDx=0;entryDy=0;fontSize=18;" edge="1" parent="1" source="MDes7jxScGut0bWwCWs6-1" target="MDes7jxScGut0bWwCWs6-2">
          <mxGeometry relative="1" as="geometry" />
        </mxCell>
        <mxCell id="MDes7jxScGut0bWwCWs6-1" value="1" style="ellipse;whiteSpace=wrap;html=1;aspect=fixed;fontSize=18;" vertex="1" parent="1">
          <mxGeometry x="374" y="10" width="63" height="63" as="geometry" />
        </mxCell>
        <mxCell id="MDes7jxScGut0bWwCWs6-20" style="edgeStyle=orthogonalEdgeStyle;rounded=0;orthogonalLoop=1;jettySize=auto;html=1;exitX=0.5;exitY=1;exitDx=0;exitDy=0;fontSize=18;" edge="1" parent="1" source="MDes7jxScGut0bWwCWs6-2" target="MDes7jxScGut0bWwCWs6-3">
          <mxGeometry relative="1" as="geometry" />
        </mxCell>
        <mxCell id="MDes7jxScGut0bWwCWs6-2" value="2,3,4" style="ellipse;whiteSpace=wrap;html=1;aspect=fixed;fontSize=18;" vertex="1" parent="1">
          <mxGeometry x="374" y="90" width="63" height="63" as="geometry" />
        </mxCell>
        <mxCell id="MDes7jxScGut0bWwCWs6-21" style="edgeStyle=orthogonalEdgeStyle;rounded=0;orthogonalLoop=1;jettySize=auto;html=1;exitX=0.5;exitY=1;exitDx=0;exitDy=0;fontSize=18;" edge="1" parent="1" source="MDes7jxScGut0bWwCWs6-3" target="MDes7jxScGut0bWwCWs6-6">
          <mxGeometry relative="1" as="geometry" />
        </mxCell>
        <mxCell id="MDes7jxScGut0bWwCWs6-3" value="5" style="ellipse;whiteSpace=wrap;html=1;aspect=fixed;fontSize=18;" vertex="1" parent="1">
          <mxGeometry x="374" y="170" width="63" height="63" as="geometry" />
        </mxCell>
        <mxCell id="MDes7jxScGut0bWwCWs6-28" style="edgeStyle=orthogonalEdgeStyle;rounded=0;orthogonalLoop=1;jettySize=auto;html=1;exitX=0.5;exitY=1;exitDx=0;exitDy=0;fontSize=18;" edge="1" parent="1" source="MDes7jxScGut0bWwCWs6-4" target="MDes7jxScGut0bWwCWs6-16">
          <mxGeometry relative="1" as="geometry" />
        </mxCell>
        <mxCell id="MDes7jxScGut0bWwCWs6-4" value="17" style="ellipse;whiteSpace=wrap;html=1;aspect=fixed;fontSize=18;" vertex="1" parent="1">
          <mxGeometry x="330" y="710" width="63" height="63" as="geometry" />
        </mxCell>
        <mxCell id="MDes7jxScGut0bWwCWs6-27" style="edgeStyle=orthogonalEdgeStyle;rounded=0;orthogonalLoop=1;jettySize=auto;html=1;exitX=0.5;exitY=1;exitDx=0;exitDy=0;fontSize=18;" edge="1" parent="1" source="MDes7jxScGut0bWwCWs6-5" target="MDes7jxScGut0bWwCWs6-4">
          <mxGeometry relative="1" as="geometry" />
        </mxCell>
        <mxCell id="MDes7jxScGut0bWwCWs6-36" style="edgeStyle=orthogonalEdgeStyle;rounded=0;orthogonalLoop=1;jettySize=auto;html=1;exitX=1;exitY=0.5;exitDx=0;exitDy=0;fontSize=18;" edge="1" parent="1" source="MDes7jxScGut0bWwCWs6-5" target="MDes7jxScGut0bWwCWs6-15">
          <mxGeometry relative="1" as="geometry" />
        </mxCell>
        <mxCell id="MDes7jxScGut0bWwCWs6-5" value="14" style="ellipse;whiteSpace=wrap;html=1;aspect=fixed;fontSize=18;" vertex="1" parent="1">
          <mxGeometry x="330" y="620" width="63" height="63" as="geometry" />
        </mxCell>
        <mxCell id="MDes7jxScGut0bWwCWs6-22" style="edgeStyle=orthogonalEdgeStyle;rounded=0;orthogonalLoop=1;jettySize=auto;html=1;exitX=1;exitY=0.5;exitDx=0;exitDy=0;fontSize=18;" edge="1" parent="1" source="MDes7jxScGut0bWwCWs6-6" target="MDes7jxScGut0bWwCWs6-11">
          <mxGeometry relative="1" as="geometry" />
        </mxCell>
        <mxCell id="MDes7jxScGut0bWwCWs6-23" style="edgeStyle=orthogonalEdgeStyle;rounded=0;orthogonalLoop=1;jettySize=auto;html=1;exitX=0.5;exitY=1;exitDx=0;exitDy=0;fontSize=18;" edge="1" parent="1" source="MDes7jxScGut0bWwCWs6-6" target="MDes7jxScGut0bWwCWs6-7">
          <mxGeometry relative="1" as="geometry" />
        </mxCell>
        <mxCell id="MDes7jxScGut0bWwCWs6-6" value="6" style="ellipse;whiteSpace=wrap;html=1;aspect=fixed;fontSize=18;" vertex="1" parent="1">
          <mxGeometry x="330" y="260" width="63" height="63" as="geometry" />
        </mxCell>
        <mxCell id="MDes7jxScGut0bWwCWs6-24" style="edgeStyle=orthogonalEdgeStyle;rounded=0;orthogonalLoop=1;jettySize=auto;html=1;exitX=0.5;exitY=1;exitDx=0;exitDy=0;entryX=0.5;entryY=0;entryDx=0;entryDy=0;fontSize=18;" edge="1" parent="1" source="MDes7jxScGut0bWwCWs6-7" target="MDes7jxScGut0bWwCWs6-8">
          <mxGeometry relative="1" as="geometry" />
        </mxCell>
        <mxCell id="MDes7jxScGut0bWwCWs6-30" style="edgeStyle=orthogonalEdgeStyle;rounded=0;orthogonalLoop=1;jettySize=auto;html=1;exitX=1;exitY=0.5;exitDx=0;exitDy=0;fontSize=18;" edge="1" parent="1" source="MDes7jxScGut0bWwCWs6-7" target="MDes7jxScGut0bWwCWs6-12">
          <mxGeometry relative="1" as="geometry" />
        </mxCell>
        <mxCell id="MDes7jxScGut0bWwCWs6-7" value="8" style="ellipse;whiteSpace=wrap;html=1;aspect=fixed;fontSize=18;" vertex="1" parent="1">
          <mxGeometry x="330" y="350" width="63" height="63" as="geometry" />
        </mxCell>
        <mxCell id="MDes7jxScGut0bWwCWs6-25" style="edgeStyle=orthogonalEdgeStyle;rounded=0;orthogonalLoop=1;jettySize=auto;html=1;exitX=0.5;exitY=1;exitDx=0;exitDy=0;entryX=0.5;entryY=0;entryDx=0;entryDy=0;fontSize=18;" edge="1" parent="1" source="MDes7jxScGut0bWwCWs6-8" target="MDes7jxScGut0bWwCWs6-9">
          <mxGeometry relative="1" as="geometry" />
        </mxCell>
        <mxCell id="MDes7jxScGut0bWwCWs6-32" style="edgeStyle=orthogonalEdgeStyle;rounded=0;orthogonalLoop=1;jettySize=auto;html=1;exitX=1;exitY=0.5;exitDx=0;exitDy=0;fontSize=18;" edge="1" parent="1" source="MDes7jxScGut0bWwCWs6-8" target="MDes7jxScGut0bWwCWs6-13">
          <mxGeometry relative="1" as="geometry" />
        </mxCell>
        <mxCell id="MDes7jxScGut0bWwCWs6-8" value="10" style="ellipse;whiteSpace=wrap;html=1;aspect=fixed;fontSize=18;" vertex="1" parent="1">
          <mxGeometry x="330" y="440" width="63" height="63" as="geometry" />
        </mxCell>
        <mxCell id="MDes7jxScGut0bWwCWs6-26" style="edgeStyle=orthogonalEdgeStyle;rounded=0;orthogonalLoop=1;jettySize=auto;html=1;exitX=0.5;exitY=1;exitDx=0;exitDy=0;fontSize=18;" edge="1" parent="1" source="MDes7jxScGut0bWwCWs6-9" target="MDes7jxScGut0bWwCWs6-5">
          <mxGeometry relative="1" as="geometry" />
        </mxCell>
        <mxCell id="MDes7jxScGut0bWwCWs6-34" style="edgeStyle=orthogonalEdgeStyle;rounded=0;orthogonalLoop=1;jettySize=auto;html=1;exitX=1;exitY=0.5;exitDx=0;exitDy=0;entryX=0;entryY=0.5;entryDx=0;entryDy=0;fontSize=18;" edge="1" parent="1" source="MDes7jxScGut0bWwCWs6-9" target="MDes7jxScGut0bWwCWs6-14">
          <mxGeometry relative="1" as="geometry" />
        </mxCell>
        <mxCell id="MDes7jxScGut0bWwCWs6-9" value="12" style="ellipse;whiteSpace=wrap;html=1;aspect=fixed;fontSize=18;" vertex="1" parent="1">
          <mxGeometry x="330" y="530" width="63" height="63" as="geometry" />
        </mxCell>
        <mxCell id="MDes7jxScGut0bWwCWs6-29" style="edgeStyle=orthogonalEdgeStyle;rounded=0;orthogonalLoop=1;jettySize=auto;html=1;exitX=1;exitY=0.5;exitDx=0;exitDy=0;fontSize=18;entryX=1;entryY=0.5;entryDx=0;entryDy=0;" edge="1" parent="1" source="MDes7jxScGut0bWwCWs6-11" target="MDes7jxScGut0bWwCWs6-4">
          <mxGeometry relative="1" as="geometry">
            <mxPoint x="660" y="740" as="targetPoint" />
            <Array as="points">
              <mxPoint x="560" y="292" />
              <mxPoint x="560" y="742" />
            </Array>
          </mxGeometry>
        </mxCell>
        <mxCell id="MDes7jxScGut0bWwCWs6-11" value="7" style="ellipse;whiteSpace=wrap;html=1;aspect=fixed;fontSize=18;" vertex="1" parent="1">
          <mxGeometry x="420" y="260" width="63" height="63" as="geometry" />
        </mxCell>
        <mxCell id="MDes7jxScGut0bWwCWs6-31" style="edgeStyle=orthogonalEdgeStyle;rounded=0;orthogonalLoop=1;jettySize=auto;html=1;exitX=1;exitY=0.5;exitDx=0;exitDy=0;fontSize=18;" edge="1" parent="1" source="MDes7jxScGut0bWwCWs6-12">
          <mxGeometry relative="1" as="geometry">
            <mxPoint x="560" y="381" as="targetPoint" />
          </mxGeometry>
        </mxCell>
        <mxCell id="MDes7jxScGut0bWwCWs6-12" value="9" style="ellipse;whiteSpace=wrap;html=1;aspect=fixed;fontSize=18;" vertex="1" parent="1">
          <mxGeometry x="430" y="350" width="63" height="63" as="geometry" />
        </mxCell>
        <mxCell id="MDes7jxScGut0bWwCWs6-33" style="edgeStyle=orthogonalEdgeStyle;rounded=0;orthogonalLoop=1;jettySize=auto;html=1;exitX=1;exitY=0.5;exitDx=0;exitDy=0;fontSize=18;" edge="1" parent="1" source="MDes7jxScGut0bWwCWs6-13">
          <mxGeometry relative="1" as="geometry">
            <mxPoint x="560" y="471" as="targetPoint" />
          </mxGeometry>
        </mxCell>
        <mxCell id="MDes7jxScGut0bWwCWs6-13" value="11" style="ellipse;whiteSpace=wrap;html=1;aspect=fixed;fontSize=18;" vertex="1" parent="1">
          <mxGeometry x="430" y="440" width="63" height="63" as="geometry" />
        </mxCell>
        <mxCell id="MDes7jxScGut0bWwCWs6-35" style="edgeStyle=orthogonalEdgeStyle;rounded=0;orthogonalLoop=1;jettySize=auto;html=1;exitX=1;exitY=0.5;exitDx=0;exitDy=0;fontSize=18;" edge="1" parent="1" source="MDes7jxScGut0bWwCWs6-14">
          <mxGeometry relative="1" as="geometry">
            <mxPoint x="567" y="561" as="targetPoint" />
          </mxGeometry>
        </mxCell>
        <mxCell id="MDes7jxScGut0bWwCWs6-14" value="13" style="ellipse;whiteSpace=wrap;html=1;aspect=fixed;fontSize=18;" vertex="1" parent="1">
          <mxGeometry x="430" y="530" width="63" height="63" as="geometry" />
        </mxCell>
        <mxCell id="MDes7jxScGut0bWwCWs6-37" style="edgeStyle=orthogonalEdgeStyle;rounded=0;orthogonalLoop=1;jettySize=auto;html=1;exitX=1;exitY=0.5;exitDx=0;exitDy=0;fontSize=18;" edge="1" parent="1" source="MDes7jxScGut0bWwCWs6-15">
          <mxGeometry relative="1" as="geometry">
            <mxPoint x="560" y="651" as="targetPoint" />
          </mxGeometry>
        </mxCell>
        <mxCell id="MDes7jxScGut0bWwCWs6-15" value="16" style="ellipse;whiteSpace=wrap;html=1;aspect=fixed;fontSize=18;" vertex="1" parent="1">
          <mxGeometry x="430" y="620" width="63" height="63" as="geometry" />
        </mxCell>
        <mxCell id="MDes7jxScGut0bWwCWs6-38" style="edgeStyle=orthogonalEdgeStyle;rounded=0;orthogonalLoop=1;jettySize=auto;html=1;exitX=0.5;exitY=1;exitDx=0;exitDy=0;fontSize=18;" edge="1" parent="1" source="MDes7jxScGut0bWwCWs6-16" target="MDes7jxScGut0bWwCWs6-17">
          <mxGeometry relative="1" as="geometry" />
        </mxCell>
        <mxCell id="MDes7jxScGut0bWwCWs6-39" style="edgeStyle=orthogonalEdgeStyle;rounded=0;orthogonalLoop=1;jettySize=auto;html=1;exitX=0;exitY=0.5;exitDx=0;exitDy=0;fontSize=18;" edge="1" parent="1" source="MDes7jxScGut0bWwCWs6-16">
          <mxGeometry relative="1" as="geometry">
            <mxPoint x="370" y="200" as="targetPoint" />
            <Array as="points">
              <mxPoint x="230" y="832" />
              <mxPoint x="230" y="200" />
            </Array>
          </mxGeometry>
        </mxCell>
        <mxCell id="MDes7jxScGut0bWwCWs6-16" value="18" style="ellipse;whiteSpace=wrap;html=1;aspect=fixed;fontSize=18;" vertex="1" parent="1">
          <mxGeometry x="330" y="800" width="63" height="63" as="geometry" />
        </mxCell>
        <mxCell id="MDes7jxScGut0bWwCWs6-17" value="19" style="ellipse;whiteSpace=wrap;html=1;aspect=fixed;fontSize=18;" vertex="1" parent="1">
          <mxGeometry x="330" y="890" width="63" height="63" as="geometry" />
        </mxCell>
      </root>
    </mxGraphModel>
  </diagram>
</mxfile>
